<svg id="Livello_1" data-name="Livello 1" xmlns="http://www.w3.org/2000/svg" viewBox="0 0 2755.27 1000.1"><defs><style>.cls-1{fill:#225777;}.cls-2{fill:#173054;}</style></defs><title>logo-with-text</title><path class="cls-1" d="M996.5,473a28.61,28.61,0,0,1,3.5-10.8V0H0V198.9c10.2,3.4,18.5,12.3,18,25.7-1.3,35.3-2.1,70.5-2.5,105.8,2.1,22.4,4.5,44.9,4.1,67.3-.4,25.7-2.4,51.2-4.6,76.8v70.8a28.78,28.78,0,0,1,14.7,3.2,91,91,0,0,1,23.4,2.7c16.4,4.3,22.3,22.2,17.4,37.3a27,27,0,0,1,1.3,4.3c6.2,29.7,9.6,68.9,3.9,104.6,14.1,56.6,20.6,122.1-3,172.8-3.6,7.7-10.8,12-18.6,13.1,8.7,33.7,15.6,66.4,11.5,101.1a75.51,75.51,0,0,1,7.1,8.6,21.43,21.43,0,0,1,3,7.1H1000V901.7c-3.4-3.3-5.9-7.9-7-14.2-11.2-67-24.9-134.2-20.3-202.6,2.2-32.6,5.5-65.2,9.3-97.7-.3-4.9-.5-9.8-.5-14.6a26.58,26.58,0,0,1,4.1-15.1C989.1,529.2,992.9,501.1,996.5,473Z"/><path class="cls-2" d="M978.6,617.6,772.4,455l-1.3-.7c-3.5-1.4-85.9-34.2-111.5-34.2-18.2,0-42.7-28.5-50.6-39.4l-.5-.6c-6.8-7.1-41.6-42.9-55-45.7-23.8-5-83.5,68.9-101.9,92.5-20.9,17-43.3,30-47.9,28.2-7.8-6.1-17.2,4-38,26.1-22.8,24.3-57.3,61-99.1,83.6l4.8,9.8c43.3-23.4,78.5-60.9,101.8-85.7,9.9-10.6,21.1-22.5,25.3-24.2,12.3,6.9,42.7-15.3,60.1-29.4l.8-.9c34.9-44.8,80-91.7,92-89.1,7.5,1.6,33.3,25.7,49.4,42.5,3.1,4.3,32.5,43.5,58.8,43.5,22.5,0,98.9,30,107,33.2L977.2,630.6C977.7,626.1,978.2,621.9,978.6,617.6Z"/><path class="cls-2" d="M397.4,463.8Z"/><path class="cls-2" d="M587.9,497.6l-6.1-8.9c13.6-10.1,41.3-54.8,50.9-71.2l9,5.7C640.3,425.6,606.1,484.1,587.9,497.6Z"/><path class="cls-2" d="M290.2,463.6l-78.3,59.6c-15.4-10.1-62.9-39.5-82.5-30.2-12,5.7-46.6,29.5-84.6,56.5a64.41,64.41,0,0,1,8.3,1.7,30.51,30.51,0,0,1,5.3,2c34.5-24.5,64.8-45.2,75.5-50.2,12.4-5.9,52.8,16.2,75.4,31.5l3,2.1L291.9,476l57.2,22.4,3.7-10.3Z"/><polygon class="cls-2" points="392.6 550.8 383.7 544.9 460.9 417.4 469.8 423.2 392.6 550.8"/><path class="cls-2" d="M159.6,361.7,157.2,351c18.2-4.4,33-24,35.2-46.5l10.5,1.1C200.2,333.1,182.4,356.1,159.6,361.7Z"/><path class="cls-2" d="M234.5,361.7c-22.7-5.6-40.6-28.6-43.3-56.1l10.5-1.1c2.3,22.5,17.1,42.1,35.2,46.5Z"/><path class="cls-2" d="M159.6,416.8l-2.4-10.7c18.2-4.5,33-24,35.2-46.5l10.5,1.1C200.2,388.2,182.4,411.2,159.6,416.8Z"/><path class="cls-2" d="M234.5,416.8c-22.7-5.6-40.5-28.6-43.3-56.1l10.5-1.1c2.3,22.5,17.1,42,35.2,46.5Z"/><rect class="cls-2" x="79.6" y="372.9" width="231.49" height="10.5" transform="matrix(0.01, -1, 1, 0.01, -184.81, 569.56)"/><path class="cls-2" d="M159.6,312.6l-2.4-10.7c18.2-4.5,33-24,35.2-46.5l10.5,1.1C200.2,284,182.4,307,159.6,312.6Z"/><path class="cls-2" d="M234.5,312.6c-22.7-5.6-40.5-28.6-43.3-56l10.5-1.1c2.3,22.5,17.1,42,35.2,46.5Z"/><path class="cls-2" d="M290,381.7,287.6,371c18.1-4.5,33-24,35.2-46.5l10.5,1.2C330.5,353.1,312.7,376.1,290,381.7Z"/><path class="cls-2" d="M364.9,381.7c-22.7-5.6-40.5-28.6-43.3-56.1l10.5-1.2c2.3,22.5,17.1,42.1,35.2,46.5Z"/><path class="cls-2" d="M290,436.8l-2.4-10.7c18.1-4.5,33-24,35.2-46.5l10.5,1.2C330.5,408.2,312.7,431.2,290,436.8Z"/><path class="cls-2" d="M364.9,436.8c-22.7-5.6-40.5-28.6-43.3-56.1l10.5-1.2c2.3,22.5,17.1,42.1,35.2,46.5Z"/><polygon class="cls-2" points="323.3 461.3 321.5 334.2 332 334 333.9 461.1 323.3 461.3"/><path class="cls-2" d="M989.3,528.9,752.4,444.5l81-17.7,33.5,7.8,122.7,92.1c.5-4.1,1.1-8.2,1.6-12.3l-119.9-90-37.8-8.8L712.7,442l275.1,98Z"/><polygon class="cls-2" points="720.4 544 712.7 536.4 778 464.1 785.6 471.7 720.4 544"/><path class="cls-2" d="M459,579.4l-7.1-8.1c25-24.1,70-93.4,70.4-94.1l1.3-1.9,81.3-14.9,1.8,10.8-76.9,14.1C522.1,497.1,482.8,556.5,459,579.4Z"/><path class="cls-2" d="M77.7,637.7c.2,3.7.4,7.4.5,11.2l117.4-30.8L565.4,609l-1.1-11.4h29.5l2.2,10.9h55.1l19.3,12.2,309-12.2c.4-3.7.8-7.4,1.2-11L673.1,609.6l-19.2-12.1H604.4l-2.2-10.9H552.5l1.1,11.6L194.5,607Z"/><path class="cls-2" d="M982.6,825.9l-284.9-4.3L696,832.5l-574.1-8.3h-.6l-37,8.5c-.8,4-1.7,8-2.7,11.9l40.8-9.4L705,843.6l1.7-10.9,277.8,4.2C983.8,833.3,983.2,829.6,982.6,825.9Z"/><path class="cls-2" d="M727.6,680.8l-1.1-16.1-52.5-55-596.1,31c.2,3.6.3,7.3.4,11l591.5-30.8,46.5,48.7v.6L588,673.7v-6.5l-95-35.9-93.6,37.2-.5,8.7L136.7,681,78.2,662.4c-.1,3.8-.2,7.6-.4,11.4l56.6,18,.8.2,273.6-3.9.6-11.8,83.5-33.2L577.3,675v10.1Z"/><path class="cls-2" d="M973.5,673.8H922.6l52.5-19.1c.3-4,.7-8,1.1-12l-74,27v4.2H697.9l-1.5,17.5,216.2-4.1v-2.5h60C972.9,681.1,973.2,677.4,973.5,673.8Z"/><rect class="cls-2" x="620.67" y="750.52" width="160.8" height="10.5" transform="translate(-59.76 1451.35) rotate(-89.58)"/><path class="cls-2" d="M978.1,795.4H948.9V772.5h26.3c-.4-3.7-.8-7.3-1.1-11H938.4v44.9h41.2C979.1,802.8,978.6,799.1,978.1,795.4Z"/><path class="cls-2" d="M971.8,717l-24-.3V697.4l24.2-.6c.1-3.7.3-7.3.6-11l-35.3.8v40.9l34.7.5C971.9,724.4,971.9,720.7,971.8,717Z"/><path class="cls-2" d="M858.8,806.4H799V761.5h61.9Zm-49.3-11h39.2l1.1-22.9H809.4v22.9Z"/><path class="cls-2" d="M860.7,728.4l-62.8-.8V686.7l62.8-1.5Zm-52.3-11.7,41.7.5V696.4l-41.7,1Z"/><path class="cls-2" d="M754.2,806.4h-50V761.5h52.2Zm-39.5-11h29.5l1.1-22.9H714.7Z"/><path class="cls-2" d="M756.1,728.4l-53-.8V686.7l53-1.6Zm-42.5-11.6,32,.5V696.5l-32,.9Z"/><path class="cls-2" d="M564.6,806.4H496.7V761.5h70.1Zm-57.4-11h47.4l1.1-22.9H507.2Z"/><path class="cls-2" d="M566.5,728.3l-70.9-.7V686.7l70.9-1.5Zm-60.4-11.6,49.8.5V696.4l-49.8,1v19.3Z"/><path class="cls-2" d="M672.4,728.3l-70.9-.7V686.7l70.9-1.5Zm-60.3-11.6,49.8.5V696.4l-49.8,1Z"/><path class="cls-2" d="M374.1,733.2l-70.9-.8V691.5l70.9-1.5Zm-60.4-11.6,49.8.5V701.2l-49.8,1.1Z"/><path class="cls-2" d="M468.9,733.2l-70.9-.8V691.5l70.9-1.5Zm-60.4-11.6,49.8.5V701.2l-49.8,1.1Z"/><path class="cls-2" d="M468.9,808.7l-70.9-.8V767l70.9-1.5Zm-60.4-11.6,49.8.5V776.7l-49.8,1Z"/><path class="cls-2" d="M276.5,736.5l-60.4-.8V694.8l60.4-1.5Zm-49.9-11.6,39.4.5V704.6l-39.4,1Z"/><path class="cls-2" d="M189.3,736.5l-60.4-.8V694.8l60.4-1.5v43.2Zm-49.8-11.6,39.4.5V704.6l-39.4,1Z"/><path class="cls-2" d="M188.6,816.1l-60.4-.8V774.4l60.4-1.5Zm-49.8-11.7,39.4.5V784.1l-39.4,1v19.3Z"/><path class="cls-2" d="M272.3,816.1l-60.4-.8V774.4l60.4-1.5Zm-49.9-11.7,39.4.5V784.1l-39.4,1Z"/><path class="cls-2" d="M362.9,816.1l-60.4-.8V774.4l60.4-1.5ZM313,804.4l39.4.5V784.1l-39.4,1Z"/><rect class="cls-2" x="879" y="682.5" width="10.5" height="148.6"/><rect class="cls-2" x="672.7" y="676.7" width="10.5" height="160.8"/><path class="cls-2" d="M75.6,697.3c0,.1.1.2.1.4l61,17-.9-32.5H77.4C77,687.2,76.4,692.3,75.6,697.3Zm50.2,2.9L100.1,693h25.5Z"/><path class="cls-2" d="M78.4,709.4l38.5-.3-.1-11-41,.3C76.7,702,77.6,705.7,78.4,709.4Z"/><rect class="cls-2" x="70.76" y="761.75" width="119.3" height="10.5" transform="translate(-638.4 886.28) rotate(-89.17)"/><path class="cls-2" d="M83.3,837.5l10.2-.2L91.3,703.4l-10.5.2.3,18.8C88.6,760.7,91.4,801.2,83.3,837.5Z"/><path class="cls-2" d="M647.9,844.1l-68.3-1.9.8-68.5h69.2Zm-57.6-12.6,47.4,1.3,1.1-48.1h-48Z"/><path class="cls-2" d="M778.8,318.6H621.9v-11H778.8c25.6,0,46.4-21.8,46.4-48.5,0-20.8-16.2-37.7-36.1-37.7-15.3,0-27.8,13-27.8,29.1,0,12.2,9.5,22.2,21.2,22.2,8.8,0,15.9-7.5,15.9-16.6a12,12,0,0,0-11.7-12.2,8.48,8.48,0,0,0-8.3,8.6,5.7,5.7,0,0,0,5.6,5.8,3.48,3.48,0,0,0,3.4-3.6H798c0,8-6.3,14.5-13.9,14.5-8.9,0-16.1-7.5-16.1-16.8,0-10.8,8.4-19.6,18.8-19.6,12.2,0,22.2,10.4,22.2,23.2,0,15.2-11.9,27.6-26.5,27.6-17.5,0-31.7-14.9-31.7-33.2,0-22.1,17.2-40.1,38.3-40.1,25.7,0,46.6,21.8,46.6,48.7C835.8,291.9,810.2,318.6,778.8,318.6Z"/><path class="cls-2" d="M630.2,243.8l-192.9-.7v-11l192.8.7c25.6,0,46.4-21.8,46.4-48.5,0-20.8-16.2-37.7-36.1-37.7-15.3,0-27.8,13-27.8,29.1,0,12.2,9.5,22.1,21.2,22.1,8.8,0,15.9-7.5,15.9-16.6A12,12,0,0,0,638,169a8.5,8.5,0,0,0-8.3,8.7,5.7,5.7,0,0,0,5.6,5.8,3.48,3.48,0,0,0,3.4-3.6h10.5c0,8-6.2,14.5-13.9,14.5-8.9,0-16.1-7.5-16.1-16.8,0-10.8,8.4-19.7,18.8-19.7,12.2,0,22.2,10.4,22.2,23.2,0,15.2-11.9,27.6-26.4,27.6-17.5,0-31.7-14.9-31.7-33.1,0-22.1,17.2-40.1,38.3-40.1,25.7,0,46.6,21.8,46.6,48.7C687.1,217.1,661.6,243.8,630.2,243.8Z"/><path class="cls-1" d="M587.6,576.9c0-.06-15.64-54.93,19.47-95.94,74.16-78.32,96.8-168,7.4-236.75C577,209.33,500.09,153.3,560.37,124.39,633.93,97.21,628.81,85.7,646.5,73.5L486.9,85.1s-130.5,51.7-81.8,84.6S620,309,620,372.8c0,49.9-40.8,60-54.6,108.7-15.4,54.1-1.5,107.1,3.4,112.2H591l-3.4-16.8Z"/><path class="cls-2" d="M642.7,262.8c-192.47-165.93-59.55-105.58,4.8-184,0,0-.3.1-.7.2L646,68s-91.31,6.61-135.76,9.88c-23.18,2.18-21.11.06-31,4.41C322,152.74,411.59,176.68,443,201.84c58.17,39.87,149.41,106.56,168.27,154.72,17.44,48.91-34.25,74.25-48.09,114.94-19.68,55.38-6.44,119.88,3.42,127.8h21.8c1.94-.09,6,0,9,0-20-86.58-1.11-94.35,42.25-149.84C692.32,382.8,686.53,304.41,642.7,262.8Zm23.7,100.9C643.11,482.11,554.3,469,584.5,588.3H571.8C532.7,438.49,643.44,434.67,623,358.92c-10.47-35.67-57-78.65-105.56-116.48-110.35-90.22-181-79.31-33.33-150.26,7.54-3,3.91-1.17,11.77-2.16L630.8,80.2c-14.76,15.6-30,22.66-49.93,29.43-126.62,40.25,30.52,126,66.25,174.38C662.2,304.47,667.69,328.76,666.4,363.7Z"/><path class="cls-2" d="M621.2,334.8c-3.1-14.4-69.1-78.2-168.3-162.6-9.8-8.4-14.3-17.7-13.2-27.6,2.5-22.4,33.3-38.4,34.6-39l4.6,9.9c-7.5,3.8-27.3,16.8-28.8,30.4-.7,6.1,2.4,11.9,9.4,17.8,62,52.8,166.9,145,171.9,168.8Z"/><path class="cls-2" d="M580.5,507.4H570c0-20.2,16.8-46.1,17.6-47.2l.5-.6c41.2-47,45.8-72,44.8-82.8-.7-7.6-4.2-10.5-4.3-10.6l5.9-9.1c.8.5,7.3,5.4,8.8,17.6,2.6,22.3-13.3,53.2-47.2,91.9C594.2,469.5,580.5,491.6,580.5,507.4Z"/><path class="cls-2" d="M638.9,313c-.3-.4-28.7-37.8-96.5-98.1l6.8-8.4c68.7,61.1,96.8,98.1,97.9,99.7Z"/><path class="cls-2" d="M523.5,195.1c-1-1.4-23.3-35.7-13.9-67.2,5-16.7,17.8-29.2,38.1-37.2l3.7,10.3c-17.1,6.7-27.8,16.9-31.8,30.2-7.9,26.4,12.3,57.4,12.5,57.8Z"/><polygon class="cls-1" points="158.2 868.2 820.8 865.5 884.7 914.9 158.2 868.2"/><path class="cls-2" d="M902.1,921.6,157.8,873.7l.3-11L822.4,860ZM319,873l548.4,35.3L819.1,871Z"/><polygon class="cls-2" points="119.2 911.3 112.8 902.6 160.1 865.1 166.5 873.9 119.2 911.3"/><path class="cls-2" d="M885.3,912.6H106.1V98.6H885.3Zm-768.7-11H874.8v-792H116.6Z"/><path class="cls-2" d="M50.1,498a218.19,218.19,0,0,1-42-162.8c17-119.9,128.3-203.7,248.2-186.7A219.65,219.65,0,0,1,443.1,396.7L432,395.1A208.27,208.27,0,0,0,254.8,159.6C141,143.4,35.3,223,19.2,336.8A207.42,207.42,0,0,0,59,491.3Z"/><path class="cls-1" d="M0,0V1000H1000V0ZM885.3,912.6H106.1V98.6H885.3Z"/><path class="cls-2" d="M1112.42,655.46v-12a70.84,70.84,0,0,1,12-5.53,85,85,0,0,1,13.91-3.64V455.4a121.35,121.35,0,0,1-14.07-3.95,73.42,73.42,0,0,1-11.85-5.22v-12h36.66q5.37,0,13.28-.32t16.43-.79q8.54-.47,16.59-.94t13.75-.48q27.49,0,49.15,7.27t36.66,21.18A91.81,91.81,0,0,1,1318,494.59q8.07,20.55,8.06,47.41,0,26.24-7.58,47.72a96.32,96.32,0,0,1-22.76,36.66q-15.17,15.18-38.4,23.55t-54.52,8.37c-2.74,0-6.43-.15-11.06-.47s-9.59-.63-14.85-1l-15.81-1q-7.9-.46-13.9-.47ZM1205,452.24q-5.7,0-11.38.31c-3.8.21-7.06.53-9.8.95v183a26,26,0,0,0,4.42.47l6.48.32,6.48.31c2.11.11,3.69.16,4.74.16q18.33,0,31.14-7.58a62.24,62.24,0,0,0,21-20.55,93.29,93.29,0,0,0,12-30.34,173,173,0,0,0,3.8-37,140,140,0,0,0-4-33.5,93,93,0,0,0-12.16-28.76,62.44,62.44,0,0,0-21.34-20.23Q1223.36,452.23,1205,452.24Z"/><path class="cls-2" d="M1487.26,609.63q0,7,.16,12c.1,3.38.37,7,.79,10.75l21.81,3.16v11.06a64.09,64.09,0,0,1-10.27,3.79c-4.33,1.27-8.85,2.48-13.59,3.64s-9.44,2.1-14.07,2.84-8.74,1.32-12.33,1.74H1449a46.24,46.24,0,0,1-3.79-14.54q-.64-7.26-1-17.7h-1.58a40.31,40.31,0,0,1-5.38,12.17,42.57,42.57,0,0,1-9.64,10.43,49,49,0,0,1-13.74,7.43,52.16,52.16,0,0,1-17.7,2.84,56.8,56.8,0,0,1-19.28-3.16,48.5,48.5,0,0,1-15.49-8.85A40.71,40.71,0,0,1,1351,633.49a42.1,42.1,0,0,1-3.79-18.17q0-14.22,5.37-23.39t16.91-15q11.54-5.85,29.71-8.69a422.9,422.9,0,0,1,44.09-4.11q2.52-27.18-2.21-39.82t-20.55-12.65a49.88,49.88,0,0,0-18,3.16l-14.86,37.93h-13.9a72.18,72.18,0,0,1-4.9-8.69q-2.37-4.89-4.43-10.43A106.08,106.08,0,0,1,1361,522.4a87.48,87.48,0,0,1-2.06-11.06q12-8.22,31-13a165,165,0,0,1,40.14-4.74q18,0,29.39,3.95t17.86,10.75a37.16,37.16,0,0,1,9,16,73.21,73.21,0,0,1,2.53,19.59q0,19-.79,34.29T1487.26,609.63ZM1416.15,634a23.85,23.85,0,0,0,11.38-2.53,31.29,31.29,0,0,0,8.06-6,25.06,25.06,0,0,0,5.05-7.58,71.58,71.58,0,0,0,2.69-7.27V579a177.62,177.62,0,0,0-24.34,1.9q-9.48,1.59-14.85,5.22a18.88,18.88,0,0,0-7.43,9.16,38.75,38.75,0,0,0-2,13.43q0,12,5.69,18.65T1416.15,634Z"/><path class="cls-2" d="M1702.49,655.46h-79v-12c2.1-1.26,4.47-2.59,7.11-4a59.23,59.23,0,0,1,8.69-3.64V572.79q0-14.58-.79-24.71a59.26,59.26,0,0,0-3.32-16.64q-2.54-6.5-7-9.5t-11.38-3a23.48,23.48,0,0,0-17.54,7.77q-7.42,7.75-10.9,20.43v88.73a54.4,54.4,0,0,1,15.8,7.6v12H1522v-12a86.87,86.87,0,0,1,9.79-4.13q5.37-1.91,11.06-3.49V519.57L1522,517V505a82.16,82.16,0,0,1,12.48-4.11q7.42-1.91,15.33-3.32t15.33-2.37l12.48-1.58h10.75v35.71h.31a55.08,55.08,0,0,1,17.86-25.28q12.79-10.43,30.82-10.43a70,70,0,0,1,14.85,1.58,37.37,37.37,0,0,1,13.43,5.85,36.29,36.29,0,0,1,10.59,11.85q4.42,7.59,6.32,19.59a58.76,58.76,0,0,1,19-28.12q13.28-10.75,32.23-10.75a65.4,65.4,0,0,1,20.7,3,32.46,32.46,0,0,1,15.18,10.61q6.15,7.61,9.32,20.59t3.16,32.94v75.06a65.72,65.72,0,0,1,20.86,7.6v12h-82.17v-12a68,68,0,0,1,15.8-7.6V567.09q0-24.72-4.59-36.44t-19.75-11.73q-11.37,0-17.86,8.56t-9.64,22.81v85.56a77.94,77.94,0,0,1,9.64,3.48,82.15,82.15,0,0,1,8.06,4.12Z"/><path class="cls-2" d="M1903.82,655.46h-87.23v-12a67.67,67.67,0,0,1,9.8-4.29q5-1.74,11.06-3.33V519.57L1816.59,517V505a106.21,106.21,0,0,1,11.85-3.8q7.11-1.89,15-3.31t15.49-2.53q7.59-1.11,13.27-1.74H1883V635.85q6.32,1.59,11.38,3.32a55.87,55.87,0,0,1,9.48,4.28ZM1832.71,445.6q0-11.06,7.49-17.38t19.37-6.33q11.87,0,19.37,6.33t7.5,17.38q0,10.74-7.5,17.07T1859.57,469q-11.86,0-19.37-6.32T1832.71,445.6Z"/><path class="cls-2" d="M2060.26,609.63q0,7,.16,12t.79,10.75l21.81,3.16v11.06a64.09,64.09,0,0,1-10.27,3.79q-6.48,1.9-13.59,3.64t-14.07,2.84q-6.94,1.11-12.32,1.74H2022a46.24,46.24,0,0,1-3.79-14.54q-.64-7.26-1-17.7h-1.58a40.28,40.28,0,0,1-5.37,12.17,43,43,0,0,1-9.64,10.43,49.11,49.11,0,0,1-13.75,7.43,52.16,52.16,0,0,1-17.7,2.84,56.88,56.88,0,0,1-19.28-3.16,48.5,48.5,0,0,1-15.49-8.85A40.71,40.71,0,0,1,1924,633.49a42.1,42.1,0,0,1-3.79-18.17q0-14.22,5.37-23.39t16.91-15q11.54-5.85,29.71-8.69a423.17,423.17,0,0,1,44.09-4.11q2.54-27.18-2.21-39.82t-20.54-12.65a49.94,49.94,0,0,0-18,3.16l-14.85,37.93H1946.8a72.18,72.18,0,0,1-4.9-8.69q-2.37-4.89-4.42-10.43A103.85,103.85,0,0,1,1934,522.4a87.48,87.48,0,0,1-2.06-11.06q12-8.22,31-13a165,165,0,0,1,40.14-4.74q18,0,29.39,3.95t17.86,10.75a37.18,37.18,0,0,1,9,16,73.62,73.62,0,0,1,2.52,19.59q0,19-.79,34.29T2060.26,609.63ZM1989.15,634a23.82,23.82,0,0,0,11.38-2.53,31.12,31.12,0,0,0,8.06-6,25.28,25.28,0,0,0,5.06-7.58,73.76,73.76,0,0,0,2.68-7.27V579a177.59,177.59,0,0,0-24.33,1.9q-9.49,1.59-14.86,5.22a18.93,18.93,0,0,0-7.43,9.16,38.75,38.75,0,0,0-2,13.43q0,12,5.69,18.65T1989.15,634Z"/><path class="cls-2" d="M2287.51,655.46h-83.76v-12q4.11-2.22,8.06-4t9.32-3.64V561.38q0-19.95-5.69-31.21t-20.22-11.25a30,30,0,0,0-20.7,7.77q-8.7,7.75-13.12,21.07v88.09a56.22,56.22,0,0,1,9,3,61.31,61.31,0,0,1,8.37,4.59v12H2095v-12a104.73,104.73,0,0,1,20.86-7.62V519.57L2095,517V505a65.7,65.7,0,0,1,10.74-3.64q6.64-1.72,14.38-3.32t15.81-2.68q8.05-1.11,14.69-1.74h10.75v32.55h.31a63.28,63.28,0,0,1,19.92-22.91q13.27-9.64,32.23-9.64a75.55,75.55,0,0,1,22.13,3,36,36,0,0,1,16.59,10.61q6.8,7.61,10.43,20.43t3.64,32.46v75.7q12.63,2.22,20.86,7.6Z"/><path class="cls-2" d="M2301.1,576.45q0-19.28,5.84-34.61a70.64,70.64,0,0,1,43.14-42.51q15.49-5.68,35.09-5.69,22.11,0,38.08,6.16t26.23,17.07a66.09,66.09,0,0,1,15,26.23,112.43,112.43,0,0,1,4.74,33.35q0,19.27-5.69,34.6A70.31,70.31,0,0,1,2447,637.13a72.57,72.57,0,0,1-26.55,16.43q-15.64,5.7-35.24,5.69-21.49,0-37.3-6.16A71.67,71.67,0,0,1,2321.64,636a68.34,68.34,0,0,1-15.49-26.23A105.87,105.87,0,0,1,2301.1,576.45Zm49,0a180.13,180.13,0,0,0,1.74,26.07,60.65,60.65,0,0,0,6.17,20.07,32.6,32.6,0,0,0,12,12.8q7.58,4.59,19.59,4.58a24.56,24.56,0,0,0,12.64-3.32q5.7-3.31,9.8-10.74t6.16-19.6a183.07,183.07,0,0,0,2.06-29.86,179.51,179.51,0,0,0-1.74-26.24,63.54,63.54,0,0,0-6-19.91A32.59,32.59,0,0,0,2401,517.5q-7.28-4.57-18.33-4.58a29,29,0,0,0-14.22,3.32q-6,3.32-10.12,10.74t-6.16,19.6A183.21,183.21,0,0,0,2350.08,576.45Z"/><path class="cls-2" d="M1184.17,936.69H1106.1v-12a70.9,70.9,0,0,1,10.9-5.53,72.59,72.59,0,0,1,11.54-3.63l81.54-203.86h23.39l79.33,203.86a81.18,81.18,0,0,1,12.64,3.63,54.44,54.44,0,0,1,11.07,5.53v12h-98.93v-12q6-2.83,13-5.37a91.72,91.72,0,0,1,13.27-3.79l-18.33-50.26h-70.16l-18.65,50.26a75.88,75.88,0,0,1,27.5,9.16Zm-1.27-92h55.94l-20.54-60.37-6-27.18h-.63l-7,27.82Z"/><path class="cls-2" d="M1430.37,999.91h-87.23v-12a112.92,112.92,0,0,1,20.86-7.6V800.8l-20.86-2.54v-12a83.67,83.67,0,0,1,12.48-4.11q7.43-1.89,15.33-3.32t15.33-2.37l12.48-1.58h10.75v35.4h.32A59.18,59.18,0,0,1,1426.74,785q11.54-10.11,32.08-10.12a65.78,65.78,0,0,1,25.12,4.59,46.57,46.57,0,0,1,19,14.22q7.74,9.65,12,24.65t4.26,35.87a110.41,110.41,0,0,1-5.53,36,75.26,75.26,0,0,1-15.8,27.18,69.28,69.28,0,0,1-25,17.07q-14.7,6-33.34,6a78.56,78.56,0,0,1-16.91-1.43,58.84,58.84,0,0,1-13.12-4.89v46.1a50,50,0,0,1,10.11,2.38,55.51,55.51,0,0,1,10.75,5.24Zm10.11-199.75a27.71,27.71,0,0,0-19.12,7.58q-8.37,7.59-11.85,23.39V915.2a34.47,34.47,0,0,0,10.75,5.53,52.05,52.05,0,0,0,14.85,1.74q18,0,26.55-17.38t8.53-50.89q0-25.91-6.48-40T1440.48,800.16Z"/><path class="cls-2" d="M1677.53,890.87c0,4.63,0,8.64.15,12s.37,7,.79,10.74l21.81,3.16v11.06a63.62,63.62,0,0,1-10.27,3.8c-4.32,1.26-8.85,2.48-13.59,3.63s-9.43,2.11-14.07,2.85-8.74,1.31-12.32,1.73h-10.75a46.18,46.18,0,0,1-3.79-14.53q-.63-7.27-1-17.7H1633a40.23,40.23,0,0,1-5.37,12.16,42.78,42.78,0,0,1-9.64,10.43,48.85,48.85,0,0,1-13.75,7.43,51.91,51.91,0,0,1-17.7,2.85,57.13,57.13,0,0,1-19.28-3.16,48.72,48.72,0,0,1-15.48-8.85,40.65,40.65,0,0,1-10.43-13.75,42.18,42.18,0,0,1-3.8-18.18q0-14.22,5.37-23.38t16.91-15q11.54-5.83,29.71-8.69a428.72,428.72,0,0,1,44.09-4.11q2.54-27.18-2.21-39.82t-20.54-12.64a49.72,49.72,0,0,0-18,3.16L1578,834h-13.91a72.35,72.35,0,0,1-4.9-8.7q-2.37-4.89-4.42-10.43a103.16,103.16,0,0,1-3.48-11.22,87.08,87.08,0,0,1-2-11.06q12-8.21,31-13a165,165,0,0,1,40.14-4.74q18,0,29.39,4t17.86,10.75a37.08,37.08,0,0,1,9,16,73.64,73.64,0,0,1,2.53,19.6q0,19-.79,34.29T1677.53,890.87Zm-71.12,24.33a23.82,23.82,0,0,0,11.38-2.53,31.32,31.32,0,0,0,8.06-6,25.26,25.26,0,0,0,5.06-7.59,72.84,72.84,0,0,0,2.68-7.27v-31.6a176.22,176.22,0,0,0-24.33,1.89q-9.48,1.59-14.86,5.22a18.85,18.85,0,0,0-7.42,9.16,38.52,38.52,0,0,0-2.06,13.44q0,12,5.69,18.64T1606.41,915.2Z"/><path class="cls-2" d="M1796.68,815a44.36,44.36,0,0,0-8.85,6.34q-5.07,4.44-9.17,14.58v81.15a75.93,75.93,0,0,1,12.64,2.37,58.94,58.94,0,0,1,12.65,5.23v12h-91.66v-12a58,58,0,0,1,10.75-4.76c3.36-1,6.74-2,10.11-2.86V800.8l-20.86-2.54v-12a83.67,83.67,0,0,1,12.48-4.11q7.43-1.89,15.33-3.32t15.33-2.37l12.48-1.58h10.75v42h1.27a72.8,72.8,0,0,1,7.42-14.54,76.46,76.46,0,0,1,11.54-13.91,56.41,56.41,0,0,1,14.54-10.11,34.58,34.58,0,0,1,16.43-3.48c2.32,3,4.32,7.11,6,12.49s3.05,10.48,4.11,15.33V815Z"/><path class="cls-2" d="M1843.77,786.55a82,82,0,0,1,25.28-11V749.9a18.86,18.86,0,0,1,6.48-3.63q4.58-1.74,9.8-3.16t10.27-2.69q5.06-1.26,8.22-1.89h10.74v40.14h41.72v20.54h-41.72v81.41q0,19.5,4.9,27t16.28,7.54a116.23,116.23,0,0,0,12.8-.79,55.12,55.12,0,0,0,13.12-3l2.21,10.43a39.9,39.9,0,0,1-8.38,6,103,103,0,0,1-28.12,10.75,79.6,79.6,0,0,1-17.55,1.9q-20.55,0-30.65-10.7t-10.12-34.61v-96h-25.28Z"/><path class="cls-2" d="M2155.08,936.69h-79v-12q3.15-1.89,7.11-4a60.34,60.34,0,0,1,8.69-3.64V854q0-14.58-.79-24.72a59.54,59.54,0,0,0-3.32-16.63c-1.69-4.33-4-7.51-7-9.51s-6.75-3-11.38-3a23.49,23.49,0,0,0-17.54,7.76q-7.44,7.77-10.91,20.44v88.72a55,55,0,0,1,15.81,7.6v12h-82.18v-12a87.06,87.06,0,0,1,9.8-4.13q5.37-1.89,11.06-3.49V800.8l-20.86-2.54v-12a83.45,83.45,0,0,1,12.49-4.11c4.94-1.26,10.06-2.37,15.32-3.32s10.38-1.73,15.33-2.37l12.49-1.58H2041v35.72h.32a55.08,55.08,0,0,1,17.86-25.29q12.8-10.42,30.81-10.43a70,70,0,0,1,14.86,1.58,37.55,37.55,0,0,1,13.43,5.85,36.51,36.51,0,0,1,10.59,11.85q4.43,7.59,6.32,19.6a58.73,58.73,0,0,1,19-28.13q13.27-10.74,32.24-10.75a65.15,65.15,0,0,1,20.7,3,32.41,32.41,0,0,1,15.17,10.6q6.16,7.6,9.33,20.59t3.16,32.94v75.06a66,66,0,0,1,20.86,7.6v12h-82.18v-12a68.8,68.8,0,0,1,15.8-7.6V848.32q0-24.71-4.58-36.44t-19.75-11.72q-11.39,0-17.86,8.56t-9.64,22.81v85.55a77.89,77.89,0,0,1,9.64,3.49,82.12,82.12,0,0,1,8.06,4.11Z"/><path class="cls-2" d="M2413,910.15a39.65,39.65,0,0,1-8.06,10.9,56.46,56.46,0,0,1-13.59,9.8,84,84,0,0,1-18.65,6.95,93,93,0,0,1-22.91,2.69q-19.61,0-34.77-5.85a66.47,66.47,0,0,1-25.28-16.75,72.33,72.33,0,0,1-15.33-26.08q-5.22-15.16-5.21-34.13,0-40.45,21.17-61.63t58.79-21.18a100.06,100.06,0,0,1,30.18,4.43,52.69,52.69,0,0,1,23.39,14.54q9.32,10.11,13,26.55t-.48,40.13h-97q.32,25,12.8,39.83t36.83,14.85a79.7,79.7,0,0,0,21.65-3.16q11.2-3.15,17.54-8.22ZM2347.7,792.89a26.82,26.82,0,0,0-11.16,2.21,20,20,0,0,0-8.48,8.06q-3.61,5.85-5.81,15.8a169.08,169.08,0,0,0-3.14,25.13h50.57q2.21-24.66-2.82-37.93T2347.7,792.89Z"/><path class="cls-2" d="M2628.84,936.69h-83.75v-12q4.1-2.2,8.06-4t9.32-3.64V842.62q0-20-5.69-31.21t-20.22-11.25a30.08,30.08,0,0,0-20.71,7.76q-8.68,7.77-13.11,21.07v88.09a57.23,57.23,0,0,1,9,3,63.56,63.56,0,0,1,8.37,4.59v12h-83.75v-12a104.73,104.73,0,0,1,20.86-7.62V800.8l-20.86-2.54v-12a66.77,66.77,0,0,1,10.74-3.63q6.64-1.74,14.38-3.32t15.81-2.69q8.05-1.1,14.69-1.74h10.75v32.56h.31A63.37,63.37,0,0,1,2523,784.51q13.29-9.63,32.24-9.64a75.2,75.2,0,0,1,22.13,3,36,36,0,0,1,16.59,10.6q6.79,7.6,10.43,20.43t3.63,32.46v75.7q12.64,2.22,20.86,7.6Z"/><path class="cls-2" d="M2635.16,786.55a82.14,82.14,0,0,1,25.29-11V749.9a18.76,18.76,0,0,1,6.48-3.63q4.58-1.74,9.8-3.16t10.27-2.69q5.05-1.26,8.22-1.89H2706v40.14h41.72v20.54H2706v81.41q0,19.5,4.9,27t16.28,7.54a116.23,116.23,0,0,0,12.8-.79,54.93,54.93,0,0,0,13.11-3l2.22,10.43a39.9,39.9,0,0,1-8.38,6,102.88,102.88,0,0,1-28.13,10.75,79.44,79.44,0,0,1-17.54,1.9q-20.55,0-30.66-10.7t-10.11-34.61v-96h-25.29Z"/><path class="cls-1" d="M1138.28,352.47a54.63,54.63,0,0,1,14,3.91v4.72h-41.48v-4.74a51.46,51.46,0,0,1,5.71-2.28,54.36,54.36,0,0,1,6-1.64V255.59a56,56,0,0,1-6.54-1.88,47.15,47.15,0,0,1-5.22-2.21v-4.73h76.6q-.17,6.36-.57,13.06t-1.23,13.4h-4.24l-6.7-18h-36.42v46.55h28.25l6.7-12.09H1177c.21,2.51.38,5.15.49,7.92s.16,5.61.16,8.5-.06,5.91-.16,8.74-.28,5.5-.49,8h-3.76l-6.7-12.58h-28.25Z"/><path class="cls-1" d="M1261.92,339.7q0,3.6.16,6.21t.33,5.55l11.27,1.64v3.43a60,60,0,0,1-9.06,3.75,70.1,70.1,0,0,1-9.56,2.45H1251a24.83,24.83,0,0,1-2-8.24c-.22-3-.39-6.29-.49-9.89h-.82a22.77,22.77,0,0,1-2.53,6.62,22.45,22.45,0,0,1-4.9,6,24.4,24.4,0,0,1-16.42,5.88q-10,0-16.25-6t-6.29-15.85c0-5,1-9.12,3-12.33a20.54,20.54,0,0,1,8.91-7.59,51,51,0,0,1,14.53-4q8.65-1.22,20.09-1.87a93.71,93.71,0,0,0,.41-12.66,30.44,30.44,0,0,0-1.79-9.64,13.56,13.56,0,0,0-4.58-6.21,13.1,13.1,0,0,0-7.92-2.2c-1.53,0-3.24.08-5.15.24a19.28,19.28,0,0,0-5.63,1.39l-7.68,19.6h-4.24q-1.63-4.89-2.86-10.12a61.76,61.76,0,0,1-1.55-10.29,54.57,54.57,0,0,1,13.8-5.88,62.52,62.52,0,0,1,16.9-2.13c5.56,0,10,.79,13.32,2.37a18.77,18.77,0,0,1,7.59,6.13,20.9,20.9,0,0,1,3.43,8.33,52.38,52.38,0,0,1,.82,9.14q0,9.81-.41,18.87T1261.92,339.7Zm-31.52,13.23a15.18,15.18,0,0,0,7.18-1.63,19.32,19.32,0,0,0,5.23-3.92,23.78,23.78,0,0,0,3.43-4.66,21.49,21.49,0,0,0,1.8-4V321.57a100.61,100.61,0,0,0-15.52,1,26.06,26.06,0,0,0-9.47,3.11,11.27,11.27,0,0,0-4.74,5.3,19.08,19.08,0,0,0-1.31,7.27q0,7,3.6,10.87T1230.4,352.93Z"/><path class="cls-1" d="M1350.28,349.67a16.25,16.25,0,0,1-4.08,5.22,29.47,29.47,0,0,1-6.37,4.25A38.3,38.3,0,0,1,1332,362a35.47,35.47,0,0,1-8.66,1.06,44.47,44.47,0,0,1-17-3,32.12,32.12,0,0,1-12.25-8.66,38.07,38.07,0,0,1-7.44-13.47,57.23,57.23,0,0,1-2.53-17.64q0-20.91,9.64-31.85t27.28-10.95a41.91,41.91,0,0,1,11.27,1.55,26.62,26.62,0,0,1,9.88,5.15,26.31,26.31,0,0,1,7,9.55,35.86,35.86,0,0,1,2.7,14.79c0,1.85-.09,3.73-.25,5.63a53.78,53.78,0,0,1-.9,6.13h-51a46,46,0,0,0,1.72,12.82,30.45,30.45,0,0,0,5.14,10.37,24.11,24.11,0,0,0,8.66,6.94,27.77,27.77,0,0,0,12.25,2.53,43.17,43.17,0,0,0,11.6-1.63q5.88-1.64,8.82-4.25Zm-29.89-65q-9.3,0-14.21,6.29t-5.88,22.13h35.94c.1-1,.18-1.93.24-2.86s.08-1.82.08-2.69q0-10.45-3.92-16.66T1320.39,284.66Z"/><path class="cls-1" d="M1453.84,361.1h-35.12V357a58.8,58.8,0,0,1,9.64-3.92V314.39q0-12.42-3.6-19.6t-13.06-7.19a19.46,19.46,0,0,0-7.6,1.47,20.62,20.62,0,0,0-6.21,4,28,28,0,0,0-4.65,5.72,31.5,31.5,0,0,0-3.1,6.61v47.7a28.92,28.92,0,0,1,9.8,3.92v4.08h-35.29V357a54.43,54.43,0,0,1,10.79-3.92V288.91l-10.79-1.31v-4.25a75.07,75.07,0,0,1,9.81-3.26q5.55-1.47,11.59-2.62h4.09v18.3h.16a36.37,36.37,0,0,1,9.88-12.91,23.54,23.54,0,0,1,15.6-5.39,40.63,40.63,0,0,1,11.68,1.55,18,18,0,0,1,8.57,5.48,26.13,26.13,0,0,1,5.23,10.53,65.12,65.12,0,0,1,1.8,16.74V353.1a28.63,28.63,0,0,1,10.78,3.92Z"/><path class="cls-1" d="M1525.7,333.17q1.14,6.85,1.72,13.8a110.57,110.57,0,0,1,.24,14.13h-64V357l46.55-70.4h-30.87l-7.19,19.27H1468a95,95,0,0,1-1.55-13.8q-.24-6.78-.24-12.66h61.41v4.25L1481,353.91h31.85l8.82-20.74Z"/><path class="cls-1" d="M1603.29,339.7q0,3.6.16,6.21t.33,5.55l11.27,1.64v3.43a60.58,60.58,0,0,1-9.07,3.75,70,70,0,0,1-9.55,2.45h-4.09a25.08,25.08,0,0,1-2-8.24c-.22-3-.38-6.29-.49-9.89h-.81a22.81,22.81,0,0,1-2.54,6.62,22.07,22.07,0,0,1-4.9,6,24.35,24.35,0,0,1-16.41,5.88q-10,0-16.25-6t-6.29-15.85c0-5,1-9.12,3-12.33a20.45,20.45,0,0,1,8.9-7.59,51.07,51.07,0,0,1,14.54-4q8.65-1.22,20.09-1.87a95.38,95.38,0,0,0,.41-12.66,30.71,30.71,0,0,0-1.8-9.64,13.54,13.54,0,0,0-4.57-6.21,13.16,13.16,0,0,0-7.93-2.2c-1.52,0-3.24.08-5.14.24a19.34,19.34,0,0,0-5.64,1.39l-7.67,19.6h-4.25q-1.64-4.89-2.86-10.12a63.92,63.92,0,0,1-1.55-10.29,54.88,54.88,0,0,1,13.8-5.88,62.6,62.6,0,0,1,16.91-2.13q8.33,0,13.31,2.37a18.87,18.87,0,0,1,7.6,6.13,20.9,20.9,0,0,1,3.43,8.33,52.36,52.36,0,0,1,.81,9.14q0,9.81-.41,18.87T1603.29,339.7Zm-31.53,13.23a15.22,15.22,0,0,0,7.19-1.63,19.32,19.32,0,0,0,5.23-3.92,24.19,24.19,0,0,0,3.43-4.66,20.71,20.71,0,0,0,1.79-4V321.57a100.47,100.47,0,0,0-15.51,1,26.18,26.18,0,0,0-9.48,3.11,11.3,11.3,0,0,0-4.73,5.3,18.89,18.89,0,0,0-1.31,7.27q0,7,3.59,10.87T1571.76,352.93Z"/></svg>