<?xml version="1.0" encoding="utf-8"?>
<!-- Generator: Adobe Illustrator 24.0.0, SVG Export Plug-In . SVG Version: 6.00 Build 0)  -->
<svg version="1.1" id="Livello_1" xmlns="http://www.w3.org/2000/svg" xmlns:xlink="http://www.w3.org/1999/xlink" x="0px" y="0px"
	 viewBox="0 0 1000 1000" style="enable-background:new 0 0 1000 1000;" xml:space="preserve">
<style type="text/css">
	.st0{fill:#225777;}
	.st1{fill:#173054;}
</style>
<g id="Gruppo">
	<path class="st0" d="M996.5,473c0.6-4.4,1.8-7.9,3.5-10.8V0H0v198.9c10.2,3.4,18.5,12.3,18,25.7c-1.3,35.3-2.1,70.5-2.5,105.8
		c2.1,22.4,4.5,44.9,4.1,67.3c-0.4,25.7-2.4,51.2-4.6,76.8c0,23.6,0,47.2,0,70.8c5.1-0.2,10.2,0.8,14.7,3.2c7.6,0,15.4,0.6,23.4,2.7
		c16.4,4.3,22.3,22.2,17.4,37.3c0.5,1.4,1,2.7,1.3,4.3c6.2,29.7,9.6,68.9,3.9,104.6c14.1,56.6,20.6,122.1-3,172.8
		c-3.6,7.7-10.8,12-18.6,13.1c8.7,33.7,15.6,66.4,11.5,101.1c2.5,2.6,4.9,5.5,7.1,8.6c1.4,2.1,2.4,4.5,3,7.1H1000v-98.4
		c-3.4-3.3-5.9-7.9-7-14.2c-11.2-67-24.9-134.2-20.3-202.6c2.2-32.6,5.5-65.2,9.3-97.7c-0.3-4.9-0.5-9.8-0.5-14.6
		c-0.1-6,1.5-11.1,4.1-15.1C989.1,529.2,992.9,501.1,996.5,473z"/>
	<g>
		<path class="st1" d="M978.6,617.6L772.4,455l-1.3-0.7c-3.5-1.4-85.9-34.2-111.5-34.2c-18.2,0-42.7-28.5-50.6-39.4l-0.5-0.6
			c-6.8-7.1-41.6-42.9-55-45.7c-23.8-5-83.5,68.9-101.9,92.5c-20.9,17-43.3,30-47.9,28.2c-7.8-6.1-17.2,4-38,26.1
			c-22.8,24.3-57.3,61-99.1,83.6l4.8,9.8c43.3-23.4,78.5-60.9,101.8-85.7c9.9-10.6,21.1-22.5,25.3-24.2
			c12.3,6.9,42.7-15.3,60.1-29.4l0.8-0.9c34.9-44.8,80-91.7,92-89.1c7.5,1.6,33.3,25.7,49.4,42.5c3.1,4.3,32.5,43.5,58.8,43.5
			c22.5,0,98.9,30,107,33.2l210.6,166.1C977.7,626.1,978.2,621.9,978.6,617.6z"/>
		<path class="st1" d="M397.4,463.8C397.4,463.8,397.5,463.8,397.4,463.8C397.5,463.8,397.4,463.8,397.4,463.8z"/>
	</g>
	<g>
		<path class="st1" d="M587.9,497.6l-6.1-8.9c13.6-10.1,41.3-54.8,50.9-71.2l9,5.7C640.3,425.6,606.1,484.1,587.9,497.6z"/>
	</g>
	<g>
		<path class="st1" d="M290.2,463.6l-78.3,59.6c-15.4-10.1-62.9-39.5-82.5-30.2c-12,5.7-46.6,29.5-84.6,56.5
			c2.7,0.4,5.5,0.9,8.3,1.7c1.9,0.5,3.6,1.2,5.3,2c34.5-24.5,64.8-45.2,75.5-50.2c12.4-5.9,52.8,16.2,75.4,31.5l3,2.1l79.6-60.6
			l57.2,22.4l3.7-10.3L290.2,463.6z"/>
	</g>
	<g>
		<polygon class="st1" points="392.6,550.8 383.7,544.9 460.9,417.4 469.8,423.2 		"/>
	</g>
	<g>
		<path class="st1" d="M159.6,361.7l-2.4-10.7c18.2-4.4,33-24,35.2-46.5l10.5,1.1C200.2,333.1,182.4,356.1,159.6,361.7z"/>
	</g>
	<g>
		<path class="st1" d="M234.5,361.7c-22.7-5.6-40.6-28.6-43.3-56.1l10.5-1.1c2.3,22.5,17.1,42.1,35.2,46.5L234.5,361.7z"/>
	</g>
	<g>
		<path class="st1" d="M159.6,416.8l-2.4-10.7c18.2-4.5,33-24,35.2-46.5l10.5,1.1C200.2,388.2,182.4,411.2,159.6,416.8z"/>
	</g>
	<g>
		<path class="st1" d="M234.5,416.8c-22.7-5.6-40.5-28.6-43.3-56.1l10.5-1.1c2.3,22.5,17.1,42,35.2,46.5L234.5,416.8z"/>
	</g>
	<g>
		
			<rect x="79.6" y="372.8" transform="matrix(1.035362e-02 -0.9999 0.9999 1.035362e-02 -184.6948 569.5654)" class="st1" width="231.5" height="10.5"/>
	</g>
	<g>
		<path class="st1" d="M159.6,312.6l-2.4-10.7c18.2-4.5,33-24,35.2-46.5l10.5,1.1C200.2,284,182.4,307,159.6,312.6z"/>
	</g>
	<g>
		<path class="st1" d="M234.5,312.6c-22.7-5.6-40.5-28.6-43.3-56l10.5-1.1c2.3,22.5,17.1,42,35.2,46.5L234.5,312.6z"/>
	</g>
	<g>
		<path class="st1" d="M290,381.7l-2.4-10.7c18.1-4.5,33-24,35.2-46.5l10.5,1.2C330.5,353.1,312.7,376.1,290,381.7z"/>
	</g>
	<g>
		<path class="st1" d="M364.9,381.7c-22.7-5.6-40.5-28.6-43.3-56.1l10.5-1.2c2.3,22.5,17.1,42.1,35.2,46.5L364.9,381.7z"/>
	</g>
	<g>
		<path class="st1" d="M290,436.8l-2.4-10.7c18.1-4.5,33-24,35.2-46.5l10.5,1.2C330.5,408.2,312.7,431.2,290,436.8z"/>
	</g>
	<g>
		<path class="st1" d="M364.9,436.8c-22.7-5.6-40.5-28.6-43.3-56.1l10.5-1.2c2.3,22.5,17.1,42.1,35.2,46.5L364.9,436.8z"/>
	</g>
	<g>
		<polygon class="st1" points="323.3,461.3 321.5,334.2 332,334 333.9,461.1 		"/>
	</g>
	<g>
		<path class="st1" d="M989.3,528.9l-236.9-84.4l81-17.7l33.5,7.8l122.7,92.1c0.5-4.1,1.1-8.2,1.6-12.3l-119.9-90l-37.8-8.8
			L712.7,442L987.8,540C988.3,536.3,988.8,532.6,989.3,528.9z"/>
	</g>
	<g>
		<polygon class="st1" points="720.4,544 712.7,536.4 778,464.1 785.6,471.7 		"/>
	</g>
	<g>
		<path class="st1" d="M459,579.4l-7.1-8.1c25-24.1,70-93.4,70.4-94.1l1.3-1.9l81.3-14.9l1.8,10.8l-76.9,14.1
			C522.1,497.1,482.8,556.5,459,579.4z"/>
	</g>
	<g>
		<path class="st1" d="M77.7,637.7c0.2,3.7,0.4,7.4,0.5,11.2l117.4-30.8l369.8-9.1l-1.1-11.4h29.5l2.2,10.9h55.1l19.3,12.2l309-12.2
			c0.4-3.7,0.8-7.4,1.2-11l-307.5,12.1l-19.2-12.1h-49.5l-2.2-10.9h-49.7l1.1,11.6l-359.1,8.8L77.7,637.7z"/>
		<path class="st1" d="M982.6,825.9l-284.9-4.3l-1.7,10.9l-574.1-8.3l-0.6,0l-37,8.5c-0.8,4-1.7,8-2.7,11.9l40.8-9.4l582.6,8.4
			l1.7-10.9l277.8,4.2C983.8,833.3,983.2,829.6,982.6,825.9z"/>
	</g>
	<g>
		<path class="st1" d="M727.6,680.8l-1.1-16.1l-52.5-55L77.9,640.7c0.2,3.6,0.3,7.3,0.4,11l591.5-30.8l46.5,48.7l0,0.6l-128.3,3.5
			v-6.5l-95-35.9l-93.6,37.2l-0.5,8.7l-262.2,3.8l-58.5-18.6c-0.1,3.8-0.2,7.6-0.4,11.4l56.6,18l0.8,0.2l273.6-3.9l0.6-11.8
			l83.5-33.2l84.4,31.9v10.1L727.6,680.8z"/>
	</g>
	<g>
		<path class="st1" d="M973.5,673.8h-50.9l52.5-19.1c0.3-4,0.7-8,1.1-12l-74,27v4.2H697.9l-1.5,17.5l216.2-4.1v-2.5h60
			C972.9,681.1,973.2,677.4,973.5,673.8z"/>
	</g>
	<g>
		
			<rect x="620.7" y="750.5" transform="matrix(7.247730e-03 -1 1 7.247730e-03 -59.7592 1451.3933)" class="st1" width="160.8" height="10.5"/>
	</g>
	<g>
		<path class="st1" d="M978.1,795.4h-29.2v-22.9h26.3c-0.4-3.7-0.8-7.3-1.1-11h-35.7v44.9h41.2C979.1,802.8,978.6,799.1,978.1,795.4
			z"/>
	</g>
	<g>
		<path class="st1" d="M971.8,717l-24-0.3v-19.3l24.2-0.6c0.1-3.7,0.3-7.3,0.6-11l-35.3,0.8v40.9L972,728
			C971.9,724.4,971.9,720.7,971.8,717z"/>
	</g>
	<g>
		<path class="st1" d="M858.8,806.4H799v-44.9h61.9L858.8,806.4z M809.5,795.4h39.2l1.1-22.9h-40.4V795.4z"/>
	</g>
	<g>
		<path class="st1" d="M860.7,728.4l-62.8-0.8v-40.9l62.8-1.5V728.4z M808.4,716.7l41.7,0.5v-20.8l-41.7,1V716.7z"/>
	</g>
	<g>
		<path class="st1" d="M754.2,806.4h-50v-44.9h52.2L754.2,806.4z M714.7,795.4h29.5l1.1-22.9h-30.6V795.4z"/>
	</g>
	<g>
		<path class="st1" d="M756.1,728.4l-53-0.8v-40.9l53-1.6V728.4z M713.6,716.8l32,0.5v-20.8l-32,0.9V716.8z"/>
	</g>
	<g>
		<path class="st1" d="M564.6,806.4h-67.9v-44.9h70.1L564.6,806.4z M507.2,795.4h47.4l1.1-22.9h-48.5V795.4z"/>
	</g>
	<g>
		<path class="st1" d="M566.5,728.3l-70.9-0.7v-40.9l70.9-1.5V728.3z M506.1,716.7l49.8,0.5v-20.8l-49.8,1V716.7z"/>
	</g>
	<g>
		<path class="st1" d="M672.4,728.3l-70.9-0.7v-40.9l70.9-1.5V728.3z M612.1,716.7l49.8,0.5v-20.8l-49.8,1V716.7z"/>
	</g>
	<g>
		<path class="st1" d="M374.1,733.2l-70.9-0.8v-40.9l70.9-1.5V733.2z M313.7,721.6l49.8,0.5v-20.9l-49.8,1.1V721.6z"/>
	</g>
	<g>
		<path class="st1" d="M468.9,733.2l-70.9-0.8v-40.9l70.9-1.5V733.2z M408.5,721.6l49.8,0.5v-20.9l-49.8,1.1V721.6z"/>
	</g>
	<g>
		<path class="st1" d="M468.9,808.7l-70.9-0.8V767l70.9-1.5V808.7z M408.5,797.1l49.8,0.5v-20.9l-49.8,1V797.1z"/>
	</g>
	<g>
		<path class="st1" d="M276.5,736.5l-60.4-0.8v-40.9l60.4-1.5V736.5z M226.6,724.9l39.4,0.5v-20.8l-39.4,1V724.9z"/>
	</g>
	<g>
		<path class="st1" d="M189.3,736.5l-60.4-0.8v-40.9l60.4-1.5V736.5z M139.5,724.9l39.4,0.5v-20.8l-39.4,1V724.9z"/>
	</g>
	<g>
		<path class="st1" d="M188.6,816.1l-60.4-0.8v-40.9l60.4-1.5V816.1z M138.8,804.4l39.4,0.5v-20.8l-39.4,1V804.4z"/>
	</g>
	<g>
		<path class="st1" d="M272.3,816.1l-60.4-0.8v-40.9l60.4-1.5V816.1z M222.4,804.4l39.4,0.5v-20.8l-39.4,1V804.4z"/>
	</g>
	<g>
		<path class="st1" d="M362.9,816.1l-60.4-0.8v-40.9l60.4-1.5V816.1z M313,804.4l39.4,0.5v-20.8l-39.4,1V804.4z"/>
	</g>
	<g>
		<rect x="879" y="682.5" class="st1" width="10.5" height="148.6"/>
	</g>
	<g>
		<rect x="672.7" y="676.7" class="st1" width="10.5" height="160.8"/>
	</g>
	<g>
		<path class="st1" d="M75.6,697.3c0,0.1,0.1,0.2,0.1,0.4l61,17l-0.9-32.5H77.4C77,687.2,76.4,692.3,75.6,697.3z M125.8,700.2
			l-25.7-7.2h25.5L125.8,700.2z"/>
	</g>
	<g>
		<path class="st1" d="M78.4,709.4l38.5-0.3l-0.1-11l-41,0.3C76.7,702,77.6,705.7,78.4,709.4z"/>
	</g>
	<g>
		
			<rect x="70.8" y="761.8" transform="matrix(1.449432e-02 -0.9999 0.9999 1.449432e-02 -638.4548 886.3202)" class="st1" width="119.3" height="10.5"/>
	</g>
	<g>
		<path class="st1" d="M83.3,837.5l10.2-0.2l-2.2-133.9l-10.5,0.2l0.3,18.8C88.6,760.7,91.4,801.2,83.3,837.5z"/>
	</g>
	<g>
		<path class="st1" d="M647.9,844.1l-68.3-1.9l0.8-68.5h69.2L647.9,844.1z M590.3,831.5l47.4,1.3l1.1-48.1h-48L590.3,831.5z"/>
	</g>
	<g>
		<path class="st1" d="M778.8,318.6H621.9v-11h156.9c25.6,0,46.4-21.8,46.4-48.5c0-20.8-16.2-37.7-36.1-37.7
			c-15.3,0-27.8,13-27.8,29.1c0,12.2,9.5,22.2,21.2,22.2c8.8,0,15.9-7.5,15.9-16.6c0-6.7-5.2-12.2-11.7-12.2c-4.6,0-8.3,3.9-8.3,8.6
			c0,3.2,2.5,5.8,5.6,5.8c1.9,0,3.4-1.6,3.4-3.6H798c0,8-6.3,14.5-13.9,14.5c-8.9,0-16.1-7.5-16.1-16.8c0-10.8,8.4-19.6,18.8-19.6
			c12.2,0,22.2,10.4,22.2,23.2c0,15.2-11.9,27.6-26.5,27.6c-17.5,0-31.7-14.9-31.7-33.2c0-22.1,17.2-40.1,38.3-40.1
			c25.7,0,46.6,21.8,46.6,48.7C835.8,291.9,810.2,318.6,778.8,318.6z"/>
	</g>
	<g>
		<path class="st1" d="M630.2,243.8l-192.9-0.7l0-11l192.8,0.7c25.6,0,46.4-21.8,46.4-48.5c0-20.8-16.2-37.7-36.1-37.7
			c-15.3,0-27.8,13-27.8,29.1c0,12.2,9.5,22.1,21.2,22.1c8.8,0,15.9-7.5,15.9-16.6c0-6.7-5.2-12.2-11.7-12.2c-4.6,0-8.3,3.9-8.3,8.7
			c0,3.2,2.5,5.8,5.6,5.8c1.9,0,3.4-1.6,3.4-3.6h10.5c0,8-6.2,14.5-13.9,14.5c-8.9,0-16.1-7.5-16.1-16.8c0-10.8,8.4-19.7,18.8-19.7
			c12.2,0,22.2,10.4,22.2,23.2c0,15.2-11.9,27.6-26.4,27.6c-17.5,0-31.7-14.9-31.7-33.1c0-22.1,17.2-40.1,38.3-40.1
			c25.7,0,46.6,21.8,46.6,48.7C687.1,217.1,661.6,243.8,630.2,243.8z"/>
	</g>
	<g>
		<path class="st0" d="M587.6,576.9c0,0-16.2-57,21.3-98c24.8-27.1,61.2-75.5,62.8-115c1.6-39.3-5.2-70.7-32.5-97.1
			c-33.3-32.1-80.5-66.9-97.2-98.9c-18.6-35.4,26.3-47.3,54.1-58c12.5-4.8,23-11.7,33.4-20.4c3.1-2.6,13.2-15.7,17-16L486.9,85.1
			c0,0-130.5,51.7-81.8,84.6c48.6,33,214.9,139.3,214.9,203.1c0,49.9-40.8,60-54.6,108.7c-15.4,54.1-1.5,107.1,3.4,112.2H591
			L587.6,576.9L587.6,576.9z"/>
		<path class="st1" d="M642.7,262.8c-9.5-9.2-20.4-18.8-30.9-28.1c-26.4-23.3-53.7-47.5-65.3-69.4c-3.8-7.2-4.7-13.3-2.7-18.7
			c4.9-13.4,27.4-21.7,45.4-28.3c3-1.1,5.9-2.2,8.6-3.2c11.8-4.5,22.9-11.3,34.9-21.3c1.2-1,2.7-2.7,5.2-5.4
			c2.5-2.8,7.8-8.7,9.6-9.6c0,0-0.3,0.1-0.7,0.2L646,68L486.6,79.6l-1.5,0.3c-9.5,3.7-92.6,37.6-96,70.9
			c-0.6,6.2,1.1,15.4,13.1,23.5c3.6,2.4,7.7,5.2,12.5,8.4c54.7,36.7,200,134,200,190.1c0,25.7-11.6,39.9-24.9,56.3
			c-10.8,13.2-23,28.2-29.4,50.9c-15.7,55.2-2.4,110.3,4.7,117.7l1.5,1.6h21.8l0,0c0.2,0,0.3,0,0.5,0c0.2,0,0.4,0,0.6,0
			c0.5,0,0.9-0.1,1.4-0.1c0.4,0,0.9,0,1.3,0.1c0.2,0,0.3,0,0.4,0c0.1,0,0.2,0,0.3,0h4.5l-6.6-32.8c-2.6-17-4.6-54.9,21.8-83.8
			c14.6-15.9,62.3-71.6,64.2-118.5C678.8,318,668.6,287.7,642.7,262.8z M666.4,363.7c-1.8,43.1-47.4,96.2-61.3,111.4
			c-38.5,42.1-23.8,99-22.6,103.2l2,10h-12.7c-4.3-10.2-15.1-56.6-1.3-105.2c5.8-20.5,16.8-33.9,27.3-46.8
			c13.5-16.5,27.4-33.6,27.4-63.4c0-62.1-143.6-158.3-204.9-199.4c-4.7-3.1-8.9-5.9-12.4-8.3c-9.1-6.2-8.6-11.4-8.4-13.1
			c2-19.9,55.1-48.1,88.5-61.5l142.8-10.4c-0.2,0.2-0.4,0.5-0.7,0.7c-1.6,1.8-3.4,3.8-4.1,4.3c-11.2,9.4-21,15.4-31.9,19.6
			c-2.7,1-5.5,2.1-8.5,3.1c-21.1,7.7-45.1,16.5-51.7,34.7c-3.1,8.4-2,17.8,3.3,27.9c12.5,23.8,40.5,48.6,67.7,72.5
			c10.9,9.6,21.2,18.7,30.6,27.8C658.9,293.4,668.2,321.1,666.4,363.7z"/>
	</g>
	<g>
		<path class="st1" d="M621.2,334.8c-3.1-14.4-69.1-78.2-168.3-162.6c-9.8-8.4-14.3-17.7-13.2-27.6c2.5-22.4,33.3-38.4,34.6-39
			l4.6,9.9c-7.5,3.8-27.3,16.8-28.8,30.4c-0.7,6.1,2.4,11.9,9.4,17.8c62,52.8,166.9,145,171.9,168.8L621.2,334.8z"/>
		<path class="st1" d="M580.5,507.4H570c0-20.2,16.8-46.1,17.6-47.2l0.5-0.6c41.2-47,45.8-72,44.8-82.8c-0.7-7.6-4.2-10.5-4.3-10.6
			l5.9-9.1c0.8,0.5,7.3,5.4,8.8,17.6c2.6,22.3-13.3,53.2-47.2,91.9C594.2,469.5,580.5,491.6,580.5,507.4z"/>
		<path class="st1" d="M638.9,313c-0.3-0.4-28.7-37.8-96.5-98.1l6.8-8.4c68.7,61.1,96.8,98.1,97.9,99.7L638.9,313z"/>
	</g>
	<g>
		<path class="st1" d="M523.5,195.1c-1-1.4-23.3-35.7-13.9-67.2c5-16.7,17.8-29.2,38.1-37.2l3.7,10.3c-17.1,6.7-27.8,16.9-31.8,30.2
			c-7.9,26.4,12.3,57.4,12.5,57.8L523.5,195.1z"/>
	</g>
	<g>
		<polygon class="st0" points="158.2,868.2 820.8,865.5 884.7,914.9 		"/>
		<path class="st1" d="M902.1,921.6l-744.3-47.9l0.3-11l664.3-2.7L902.1,921.6z M319,873l548.4,35.3L819.1,871L319,873z"/>
	</g>
	<polygon class="st1" points="119.2,911.3 112.8,902.6 160.1,865.1 166.5,873.9 	"/>
	<path class="st1" d="M885.3,912.6H106.1V98.6h779.2V912.6z M116.6,901.6h758.2V109.6H116.6V901.6z"/>
	<path class="st1" d="M50.1,498c-35.3-46.9-50.2-104.7-42-162.8c17-119.9,128.3-203.7,248.2-186.7c58.1,8.2,109.5,38.5,144.8,85.4
		c35.3,46.9,50.2,104.7,42,162.8l-11.1-1.6c7.8-55.1-6.4-110-39.8-154.5c-33.5-44.5-82.3-73.3-137.4-81
		C141,143.4,35.3,223,19.2,336.8c-7.8,55.1,6.4,110,39.8,154.5L50.1,498z"/>
	<path class="st0" d="M0,0v1000h1000V0H0z M885.3,912.6H106.1v-814h779.2V912.6z"/>
</g>
</svg>
